HIERARCHY
ROOT Hips
{
	OFFSET -0.179506 -22.333345 2.821913
	CHANNELS 6 Xposition Yposition Zposition Zrotation Yrotation Xrotation 
	JOINT LeftUpLeg
	{
		OFFSET 6.951974 -9.140623 -0.681533
		CHANNELS 3 Zrotation Yrotation Xrotation
		JOINT LeftLeg
		{
			OFFSET 3.427654 -37.519855 -0.449580
			CHANNELS 3 Zrotation Yrotation Xrotation
			JOINT LeftFoot
			{
				OFFSET -1.359570 -39.796059 -4.369333
				CHANNELS 3 Zrotation Yrotation Xrotation
				JOINT LeftToe
				{
					OFFSET 2.635814 -5.579078 11.928840
					CHANNELS 3 Zrotation Yrotation Xrotation
					End Site
					{
						OFFSET 0.000000 0.000000 0.000000
					}
				}
			}
		}
	}
	JOINT RightUpLeg
	{
		OFFSET -6.767048 -9.052170 -0.431982
		CHANNELS 3 Zrotation Yrotation Xrotation
		JOINT RightLeg
		{
			OFFSET -3.829005 -38.256897 -0.885003
			CHANNELS 3 Zrotation Yrotation Xrotation
			JOINT RightFoot
			{
				OFFSET 1.577377 -39.841461 -4.231180
				CHANNELS 3 Zrotation Yrotation Xrotation
				JOINT RightToe
				{
					OFFSET -2.537174 -4.814398 12.334795
					CHANNELS 3 Zrotation Yrotation Xrotation
					End Site
					{
						OFFSET 0.000000 0.000000 0.000000
					}
				}
			}
		}
	}
	JOINT Spine
	{
		OFFSET -0.253288 10.896323 -2.669631
		CHANNELS 3 Zrotation Yrotation Xrotation
		JOINT Spine1
		{
			OFFSET 0.548704 13.518043 0.109247
			CHANNELS 3 Zrotation Yrotation Xrotation
			JOINT Spine2
			{
				OFFSET 0.145701 5.292222 2.542457
				CHANNELS 3 Zrotation Yrotation Xrotation
				JOINT Neck
				{
					OFFSET -0.277840 21.387037 -4.285703
					CHANNELS 3 Zrotation Yrotation Xrotation
					JOINT Head
					{
						OFFSET 0.515184 6.496960 5.134897
						CHANNELS 3 Zrotation Yrotation Xrotation
						End Site
						{
							OFFSET 0.000000 0.000000 0.000000
						}
					}
				}
				JOINT LeftShoulder
				{
					OFFSET 7.884473 12.174932 -3.408961
					CHANNELS 3 Zrotation Yrotation Xrotation
					JOINT LeftArm
					{
						OFFSET 9.097692 3.046888 -0.886815
						CHANNELS 3 Zrotation Yrotation Xrotation
						JOINT LeftForeArm
						{
							OFFSET 25.961220 -1.277207 -2.745643
							CHANNELS 3 Zrotation Yrotation Xrotation
							JOINT LeftHand
							{
								OFFSET 24.923361 0.898606 -0.117091
								CHANNELS 3 Zrotation Yrotation Xrotation
								End Site
								{
									OFFSET 0.000000 0.000000 0.000000
								}
							}
						}
					}
				}
				JOINT RightShoulder
				{
					OFFSET -8.175920 11.883285 -3.861528
					CHANNELS 3 Zrotation Yrotation Xrotation
					JOINT RightArm
					{
						OFFSET -9.601238 3.255117 -0.914307
						CHANNELS 3 Zrotation Yrotation Xrotation
						JOINT RightForeArm
						{
							OFFSET -25.374195 -1.332924 -2.140099
							CHANNELS 3 Zrotation Yrotation Xrotation
							JOINT RightHand
							{
								OFFSET -25.529810 0.777228 -0.555919
								CHANNELS 3 Zrotation Yrotation Xrotation
								End Site
								{
									OFFSET 0.000000 0.000000 0.000000
								}
							}
						}
					}
				}
			}
		}
	}
}
MOTION
Frames: 7
Frame Time: 0.033333
7.537905 45.157719 91.222374 -97.372446 -0.485398 89.191436 12.509654 6.313175 -2.972305 -2.804054 8.480426 17.068392 -1.704334 -1.546388 -21.204805 nan nan nan -19.865586 -16.201385 -12.636130 0.676636 -22.991600 17.798796 12.148644 2.763274 -3.144601 nan nan nan 0.154291 5.311789 7.924866 6.725269 -3.210648 6.635251 4.918882 1.155992 -1.220579 5.438768 -8.169720 19.214885 5.303401 -11.831166 17.258121 -3.409280 -17.799296 -3.119690 -72.988417 -38.013227 20.326709 148.994162 -62.148039 -110.705370 1.766266 -22.076390 -21.584946 4.165327 10.673720 -0.249686 36.695628 18.987326 -12.598642 -115.816404 45.917991 -86.093309 6.645138 10.466656 -6.542371 
7.577885 45.001839 91.166183 -97.410992 -0.403839 88.896692 12.418741 6.237217 -2.959876 -2.619999 8.365490 17.586602 -1.512808 -1.307614 -21.632750 nan nan nan -19.838030 -16.082741 -12.263800 0.755552 -22.449601 17.784973 12.059103 3.229195 -3.544899 nan nan nan -0.000653 5.486636 8.097269 6.661163 -3.203306 6.535755 4.860574 1.295376 -1.022736 5.622519 -7.923197 18.975583 5.305513 -12.145885 17.364037 -3.262797 -17.806682 -3.206420 -72.796735 -37.999334 20.207924 149.104635 -62.185688 -110.805508 2.020568 -22.155044 -21.725335 4.244521 10.556970 -0.271225 37.200729 18.866175 -12.557649 -116.015324 45.678454 -86.012167 6.264949 10.417153 -6.546885 
7.636480 44.863152 91.112831 -97.413116 -0.304035 88.669135 12.349862 6.074879 -3.070573 -2.453490 8.232205 18.168096 -1.391877 -1.105079 -22.026502 nan nan nan -19.762918 -15.940062 -11.908497 0.841051 -22.044771 17.622967 11.759547 3.548109 -4.203683 nan nan nan -0.113621 5.670659 8.180501 6.592282 -3.202654 6.593637 4.802392 1.369867 -1.031633 5.759766 -7.736581 18.861161 5.301370 -12.376165 17.370284 -3.212599 -17.833335 -3.244648 -72.637368 -37.931947 20.102787 149.166829 -62.125761 -110.903967 1.829803 -22.318922 -22.032834 4.473197 10.535062 -0.188765 37.493010 18.721381 -12.581828 -116.177255 45.377992 -85.939605 6.443694 10.261233 -6.355960 
7.719162 44.730644 91.043442 -97.414642 -0.262799 88.540771 12.216230 5.790432 -3.316578 -2.277352 8.213650 18.771113 -1.150153 -0.876380 -22.417894 nan nan nan -19.707553 -15.814469 -11.749239 0.823641 -21.691944 17.530410 11.510797 3.588627 -4.740051 nan nan nan -0.269053 5.856746 8.120623 6.529632 -3.163073 6.739999 4.714658 1.347811 -1.036822 5.792773 -7.560764 18.701136 5.312918 -12.581791 17.407513 -3.225679 -17.633329 -3.290869 -72.645702 -37.967036 20.099804 149.375714 -62.207573 -111.149549 1.803690 -22.515648 -22.480526 4.718383 10.431793 -0.075576 37.760631 18.756909 -12.553147 -116.323642 45.142179 -85.796938 6.675764 10.257691 -6.064470 
7.786481 44.611004 90.963066 -97.414575 -0.230215 88.419716 12.100520 5.533108 -3.563325 -2.080376 8.258882 19.400987 -0.919814 -0.666539 -22.747303 nan nan nan -19.644668 -15.693023 -11.587817 0.730876 -21.462196 17.349376 11.568667 3.274996 -4.742908 nan nan nan -0.433658 5.988933 8.044547 6.477879 -3.099130 6.818257 4.620321 1.314021 -0.882216 5.771958 -7.488188 18.392472 5.339134 -12.628233 17.495998 -3.205076 -17.323032 -3.401616 -72.709152 -38.027595 20.116955 149.622144 -62.403214 -111.272840 2.030489 -22.658598 -22.864852 4.840503 10.226790 -0.213114 38.235357 18.844621 -12.284009 -116.435678 44.937340 -85.648096 7.014048 10.379072 -6.062512 
7.874787 44.504570 90.885666 -97.448353 -0.154287 88.372056 12.062773 5.290650 -3.844343 -1.958584 8.247475 19.946845 -0.761181 -0.375102 -22.998776 nan nan nan -19.502983 -15.579776 -11.566343 0.548428 -21.415684 17.192648 11.769068 2.850864 -4.166446 nan nan nan -0.638122 6.110634 7.988881 6.480474 -3.002582 6.696261 4.611870 1.303188 -0.624556 5.775209 -7.426742 18.121863 5.328000 -12.540209 17.492279 -3.204997 -17.095392 -3.503742 -72.775708 -38.051002 20.250839 149.788709 -62.492824 -111.406143 2.271125 -22.547533 -22.881244 4.912356 10.007477 -0.425024 38.639922 18.842082 -11.870849 -116.512561 44.711657 -85.689646 7.224948 10.328774 -6.238973 
7.969806 44.408573 90.810051 -97.522690 -0.107285 88.334956 11.994358 5.085640 -4.078483 -1.911450 8.135866 20.371490 -0.544033 -0.020583 -23.262184 nan nan nan -19.381753 -15.567465 -11.616101 0.446700 -21.202750 17.029103 11.797153 2.581686 -3.657778 nan nan nan -0.848299 6.268257 7.893286 6.442217 -2.920966 6.564934 4.624823 1.261446 -0.366649 5.707478 -7.366986 18.022083 5.271958 -12.368990 17.443985 -3.215775 -16.992747 -3.520189 -72.687180 -38.084200 20.243034 149.878904 -62.449313 -111.666525 2.133046 -22.478314 -22.738221 4.949241 9.861938 -0.486931 39.026861 18.858625 -11.570139 -116.576208 44.558513 -85.847416 7.223647 10.163950 -6.062763 
